<?xml version="1.0" standalone="no"?>
<!DOCTYPE svg PUBLIC "-//W3C//DTD SVG 20010904//EN"
 "http://www.w3.org/TR/2001/REC-SVG-20010904/DTD/svg10.dtd">
<svg version="1.0" xmlns="http://www.w3.org/2000/svg"
 width="924.000000pt" height="924.000000pt" viewBox="0 0 924.000000 924.000000"
 preserveAspectRatio="xMidYMid meet">
<metadata>
Created by potrace 1.14, written by Peter Selinger 2001-2017
</metadata>
<g transform="translate(0.000000,924.000000) scale(0.100000,-0.100000)"
fill="#000000" stroke="none">
<path d="M4460 8829 c-781 -55 -1515 -340 -2125 -825 -217 -173 -555 -532
-714 -760 -42 -61 -20 -38 91 91 118 137 370 382 503 488 405 324 882 561
1381 686 294 74 502 101 826 108 274 6 418 -3 653 -43 1042 -178 1899 -748
2455 -1635 85 -135 186 -332 174 -337 -5 -2 -232 -97 -504 -211 -342 -144
-494 -213 -492 -222 3 -14 595 -1749 612 -1793 l8 -22 633 102 c363 59 635
108 640 115 14 23 21 461 9 599 -19 237 -74 567 -121 740 -182 658 -477 1186
-956 1706 -376 410 -931 777 -1490 987 -491 185 -1046 264 -1583 226z m3103
-4119 c62 -69 14 -169 -81 -170 -60 0 -102 41 -102 98 0 101 116 146 183 72z"/>
<path d="M945 6673 c-35 -78 -109 -283 -151 -417 -72 -228 -120 -458 -150
-721 -25 -213 -25 -713 -1 -915 132 -1077 700 -2051 1579 -2704 472 -350 1004
-576 1623 -691 793 -146 1593 -36 2340 324 370 178 670 389 974 686 356 347
571 642 770 1056 64 132 151 339 151 357 0 4 -42 -78 -93 -183 -103 -211 -184
-350 -290 -500 -514 -728 -1230 -1229 -2087 -1459 -299 -80 -543 -111 -890
-111 -287 0 -375 7 -630 51 -1309 224 -2359 1122 -2780 2374 -56 166 -142 531
-129 544 2 2 160 -21 351 -52 191 -31 349 -54 351 -51 7 8 617 1801 617 1813
0 7 -312 145 -747 329 -412 174 -756 319 -765 323 -14 5 -23 -6 -43 -53z m883
-2048 c50 -58 11 -159 -68 -171 -50 -8 -102 28 -115 80 -26 107 109 175 183
91z"/>
<path d="M5173 6350 c-82 -15 -204 -64 -352 -141 -467 -244 -598 -316 -636
-354 -55 -55 -300 -518 -313 -592 -25 -139 48 -277 177 -337 68 -31 189 -29
255 3 77 38 112 82 241 298 l120 201 130 71 c150 80 199 96 294 89 111 -8 148
-35 324 -232 455 -510 869 -966 914 -1007 61 -54 105 -69 205 -69 68 0 100 9
352 94 152 52 279 96 282 99 4 3 -502 1497 -509 1503 -1 1 -51 -14 -112 -33
-80 -25 -130 -35 -185 -36 -69 -2 -82 1 -165 41 -107 51 -466 241 -580 306
-142 82 -312 119 -442 96z"/>
<path d="M4090 6299 c-52 -5 -147 -21 -210 -35 -158 -35 -515 -155 -755 -254
-296 -122 -320 -129 -400 -130 -38 0 -93 6 -122 14 l-51 14 -41 -117 c-102
-293 -482 -1408 -484 -1420 -1 -11 65 -34 248 -89 361 -107 381 -106 535 34
120 108 224 153 356 154 82 0 144 -23 203 -76 55 -49 77 -89 92 -168 l11 -54
37 13 c66 23 132 27 194 10 153 -40 245 -171 235 -331 l-4 -64 51 0 c80 0 143
-26 201 -85 62 -61 88 -129 88 -227 l0 -68 53 0 c29 0 76 -9 105 -20 117 -44
181 -136 182 -263 0 -40 -6 -89 -13 -110 -12 -36 -11 -40 10 -63 13 -14 56
-41 96 -61 58 -29 88 -37 147 -41 67 -4 79 -2 118 21 49 28 92 96 101 161 6
36 -4 110 -19 149 -5 15 3 13 52 -12 79 -40 144 -55 208 -48 57 6 120 33 148
64 50 55 63 174 28 265 -11 29 -20 54 -20 55 0 2 28 -16 63 -40 155 -106 328
-108 425 -3 52 56 66 100 60 195 -5 74 -32 147 -83 217 -12 17 -3 14 57 -15
62 -31 81 -36 144 -36 64 0 77 3 116 30 114 81 118 224 9 391 -20 33 -100 129
-177 214 -77 85 -312 347 -522 582 -380 425 -383 428 -437 444 -79 22 -143 7
-283 -70 l-114 -61 -116 -195 c-66 -110 -137 -215 -162 -241 -87 -88 -218
-130 -338 -109 -129 22 -238 104 -295 219 -29 61 -32 74 -32 169 l0 102 89
175 c122 239 229 418 270 452 19 15 119 74 223 129 103 56 189 106 191 112 5
17 -83 82 -140 102 -67 23 -205 31 -328 19z"/>
<path d="M3116 4379 c-138 -22 -321 -169 -360 -289 -25 -75 -28 -115 -16 -174
16 -77 63 -142 130 -180 45 -25 64 -30 119 -30 38 1 82 8 104 17 l38 16 -8
-52 c-19 -124 1 -208 65 -270 78 -76 218 -89 354 -32 15 6 16 -1 11 -69 -10
-126 37 -212 139 -256 63 -28 164 -31 218 -8 l35 15 0 -81 c0 -90 12 -121 67
-174 41 -41 124 -67 186 -58 117 16 237 111 295 233 27 58 32 79 32 144 0 65
-4 81 -27 116 -55 83 -182 108 -300 59 -32 -13 -58 -23 -58 -22 0 0 9 25 21
55 70 184 3 350 -151 375 -43 7 -140 -16 -188 -45 -18 -10 -35 -19 -37 -19 -2
0 10 30 28 68 28 60 32 76 32 163 0 93 -1 99 -31 140 -19 27 -53 55 -85 72
-47 25 -62 28 -115 24 -70 -5 -152 -39 -224 -92 l-47 -35 18 67 c11 37 19 86
19 108 0 150 -109 238 -264 214z"/>
<path d="M8086 3685 c-9 -26 -7 -32 5 -12 6 10 9 21 6 23 -2 3 -7 -2 -11 -11z"/>
</g>
</svg>
